<?xml version="1.0" encoding="UTF-8" standalone="no"?>
<!-- Created with Inkscape (http://www.inkscape.org/) -->

<svg
   xmlns:dc="http://purl.org/dc/elements/1.1/"
   xmlns:cc="http://creativecommons.org/ns#"
   xmlns:rdf="http://www.w3.org/1999/02/22-rdf-syntax-ns#"
   xmlns:svg="http://www.w3.org/2000/svg"
   xmlns="http://www.w3.org/2000/svg"
   xmlns:xlink="http://www.w3.org/1999/xlink"
   xmlns:sodipodi="http://sodipodi.sourceforge.net/DTD/sodipodi-0.dtd"
   xmlns:inkscape="http://www.inkscape.org/namespaces/inkscape"
   width="744.09448819"
   height="1052.3622047"
   id="svg2"
   version="1.1"
   inkscape:version="0.48.3.1 r9886"
   sodipodi:docname="shopping-basket.svg"
   inkscape:export-filename="D:\stuff\work\random\NotEdible\Documents\shopping-basket.png"
   inkscape:export-xdpi="207.36113"
   inkscape:export-ydpi="207.36113">
  <defs
     id="defs4" />
  <sodipodi:namedview
     id="base"
     pagecolor="#ffffff"
     bordercolor="#666666"
     borderopacity="1.0"
     inkscape:pageopacity="0.0"
     inkscape:pageshadow="2"
     inkscape:zoom="1.979899"
     inkscape:cx="398.38205"
     inkscape:cy="449.53756"
     inkscape:document-units="px"
     inkscape:current-layer="layer1"
     showgrid="false"
     showguides="true"
     inkscape:guide-bbox="true"
     inkscape:window-width="1920"
     inkscape:window-height="1017"
     inkscape:window-x="-8"
     inkscape:window-y="-8"
     inkscape:window-maximized="1"
     inkscape:snap-grids="false"
     inkscape:snap-to-guides="true">
    <sodipodi:guide
       orientation="1,0"
       position="326.78435,501.54074"
       id="guide2987" />
    <sodipodi:guide
       orientation="0,1"
       position="245.97214,723.26922"
       id="guide3011" />
    <sodipodi:guide
       orientation="0,1"
       position="269.71073,486.89353"
       id="guide3013" />
    <sodipodi:guide
       orientation="1,0"
       position="83.842661,549.01791"
       id="guide3015" />
    <sodipodi:guide
       orientation="1,0"
       position="147.48227,514.16765"
       id="guide3017" />
    <sodipodi:guide
       orientation="0,1"
       position="59.599,605.08137"
       id="guide3021" />
    <sodipodi:guide
       orientation="0,1"
       position="124.75384,545.98745"
       id="guide3025" />
    <sodipodi:guide
       orientation="0,1"
       position="117.1777,664.1753"
       id="guide3027" />
    <sodipodi:guide
       orientation="1,0"
       position="236.88077,626.79965"
       id="guide3029" />
    <sodipodi:guide
       orientation="1,0"
       position="191.92898,577.80726"
       id="guide3031" />
    <sodipodi:guide
       orientation="1,0"
       position="281.83256,524.26917"
       id="guide3033" />
  </sodipodi:namedview>
  <metadata
     id="metadata7">
    <rdf:RDF>
      <cc:Work
         rdf:about="">
        <dc:format>image/svg+xml</dc:format>
        <dc:type
           rdf:resource="http://purl.org/dc/dcmitype/StillImage" />
        <dc:title></dc:title>
      </cc:Work>
    </rdf:RDF>
  </metadata>
  <g
     inkscape:label="Layer 1"
     inkscape:groupmode="layer"
     id="layer1"
     style="display:inline">
    <path
       inkscape:connector-curvature="0"
       id="rect3035"
       style="fill:#000000;fill-opacity:1;stroke-width:32;stroke-linecap:round;stroke-linejoin:round;stroke-miterlimit:4;stroke:none;stroke-opacity:1"
       d="m 375.59375,616.5 0,46.6875 38.0625,0 0,-46.6875 -38.0625,0 z m 44.4375,0 0,46.6875 38.0625,0 0,-46.6875 -38.0625,0 z m 44.9375,0 0,46.6875 38.09375,0 0,-46.6875 -38.09375,0 z m 44.96875,0 0,46.6875 38.0625,0 0,-46.6875 -38.0625,0 z m -134.34375,59.09375 0,46.6875 38.0625,0 0,-46.6875 -38.0625,0 z m 44.4375,0 0,46.6875 38.0625,0 0,-46.6875 -38.0625,0 z m 44.9375,0 0,46.6875 38.09375,0 0,-46.6875 -38.09375,0 z m 44.96875,0 0,46.6875 38.0625,0 0,-46.6875 -38.0625,0 z m -134.34375,59.09375 0,46.6875 38.0625,0 0,-46.6875 -38.0625,0 z m 44.4375,0 0,46.6875 38.0625,0 0,-46.6875 -38.0625,0 z m 44.9375,0 0,46.6875 38.09375,0 0,-46.6875 -38.09375,0 z m 44.96875,0 0,46.6875 38.0625,0 0,-46.6875 -38.0625,0 z" />
    <use
       x="0"
       y="0"
       xlink:href="#rect3035"
       id="use4388"
       transform="translate(179.45536,0)"
       width="744.09448"
       height="1052.3622"
       style="fill:#000000;fill-opacity:1;stroke:none;stroke-opacity:1" />
    <g
       id="g4414"
       style="stroke:#000000;stroke-width:16;stroke-linecap:round;stroke-linejoin:round;stroke-miterlimit:4;stroke-opacity:1;stroke-dasharray:none"
       transform="translate(134.23881,15.657364)">
      <path
         style="fill:none;stroke:#000000;stroke-width:16;stroke-linecap:round;stroke-linejoin:round;stroke-miterlimit:4;stroke-opacity:1;stroke-dasharray:none;display:inline"
         d="m 84.28125,329.09375 63.3125,236.28125 179.1875,0 179.1875,0 63.3125,-236.28125 -242.5,0 -242.5,0 z"
         id="path2985-1"
         inkscape:connector-curvature="0" />
    </g>
  </g>
</svg>
