<?xml version="1.0" encoding="UTF-8" standalone="no"?>
<!-- Generator: Adobe Illustrator 15.0.0, SVG Export Plug-In . SVG Version: 6.00 Build 0)  -->

<svg
   xmlns:dc="http://purl.org/dc/elements/1.1/"
   xmlns:cc="http://creativecommons.org/ns#"
   xmlns:rdf="http://www.w3.org/1999/02/22-rdf-syntax-ns#"
   xmlns:svg="http://www.w3.org/2000/svg"
   xmlns="http://www.w3.org/2000/svg"
   xmlns:sodipodi="http://sodipodi.sourceforge.net/DTD/sodipodi-0.dtd"
   xmlns:inkscape="http://www.inkscape.org/namespaces/inkscape"
   version="1.1"
   id="Ebene_1"
   x="0px"
   y="0px"
   width="749.99px"
   height="659.08px"
   viewBox="0 0 749.99 659.08"
   enable-background="new 0 0 749.99 659.08"
   xml:space="preserve"
   inkscape:version="0.48.3.1 r9886"
   sodipodi:docname="Zeichen_101.svg"
   inkscape:export-filename="D:\stuff\work\random\NotEdible\Documents\Zeichen_101.png"
   inkscape:export-xdpi="72.919273"
   inkscape:export-ydpi="72.919273"><metadata
   id="metadata15"><rdf:RDF><cc:Work
       rdf:about=""><dc:format>image/svg+xml</dc:format><dc:type
         rdf:resource="http://purl.org/dc/dcmitype/StillImage" /><dc:title></dc:title></cc:Work></rdf:RDF></metadata><defs
   id="defs13" /><sodipodi:namedview
   pagecolor="#ffffff"
   bordercolor="#666666"
   borderopacity="1"
   objecttolerance="10"
   gridtolerance="10"
   guidetolerance="10"
   inkscape:pageopacity="0"
   inkscape:pageshadow="2"
   inkscape:window-width="1920"
   inkscape:window-height="1017"
   id="namedview11"
   showgrid="false"
   inkscape:zoom="0.71614977"
   inkscape:cx="173.28433"
   inkscape:cy="362.8236"
   inkscape:window-x="-8"
   inkscape:window-y="-8"
   inkscape:window-maximized="1"
   inkscape:current-layer="Ebene_1" />


<path
   fill="#E30613"
   d="M35.663,645.708c-12.33,0-22.297-10.002-22.297-22.29c0-3.924,1.027-7.747,2.996-11.135L355.703,24.492  c6.16-10.644,19.784-14.308,30.452-8.147c3.365,1.945,6.187,4.766,8.155,8.147l339.316,587.791  c6.179,10.652,2.521,24.275-8.132,30.436c-3.389,1.954-7.229,2.989-11.135,2.989 M112.847,578.856H637.16l-262.157-454.09  L112.847,578.856z"
   id="path7"
   style="fill:#000000;fill-opacity:1" />
<path
   d="M410.665,520.907c0,19.7-15.96,35.645-35.662,35.645c-19.693,0-35.662-15.944-35.662-35.645  c0-19.686,15.969-35.646,35.662-35.646C394.705,485.261,410.665,501.221,410.665,520.907 M392.751,451.185  c-0.853,9.8-9.518,17.046-19.334,16.179c-8.582-0.77-15.402-7.58-16.169-16.179L339.5,252.222  c-1.762-19.609,12.73-36.931,32.348-38.692c19.609-1.745,36.914,12.739,38.667,32.348c0.185,2.121,0.185,4.225,0,6.345  L392.751,451.185z"
   id="path9" />
</svg>